Genre:Animation | Adventure | Comedy
Language:English
 
http://www.imdb.com/title/tt0448694/

Source:DvdScr Thanks!

Format : AVI
Format/Info : Audio Video Interleave
File size : 1.04 GiB
Duration : 1h 29mn
Overall bit rate : 1 670 Kbps

Video
ID : 0
Format : MPEG-4 Visual
Format profile : Advanced Simple@L5
Format settings, BVOP : Yes
Format settings, QPel : No
Format settings, GMC : No warppoints
Format settings, Matrix : Default (H.263)
Codec ID : XVID
Codec ID/Hint : XviD
Duration : 1h 29mn
Bit rate : 1 466 Kbps
Width : 640 pixels
Height : 360 pixels
Display aspect ratio : 16:9
Frame rate : 29.970 fps
Color space : YUV
Chroma subsampling : 4:2:0
Bit depth : 8 bits
Scan type : Progressive
Bits/(Pixel*Frame) : 0.212
Stream size : 940 MiB (88%)
Writing library : XviD 1.2.1 (UTC 2008-12-04)

Audio
ID : 1
Format : AC-3
Format/Info : Audio Coding 3
Mode extension : CM (complete main)
Codec ID : 2000
Duration : 1h 29mn
Bit rate mode : Constant
Bit rate : 192 Kbps
Channel(s) : 2 channels
Channel positions : Front: L R
Sampling rate : 48.0 KHz
Bit depth : 16 bits
Stream size : 123 MiB (11%)
Alignment : Aligned on interleaves
Interleave, duration : 33 ms (1.00 video frame)
Interleave, preload duration : 512 ms


Plot:
A story about the events leading up to the sword fighting cat's meeting with Shrek and his friends.
 
http://img853.imageshack.us/img853/8604/vlcsnap2012011115h04m13.png 
http://img441.imageshack.us/img441/2444/vlcsnap2012011115h04m27.png 
http://img546.imageshack.us/img546/6801/vlcsnap2012011115h04m32.png 
http://img220.imageshack.us/img220/346/vlcsnap2012011115h04m55.png